<svg width="64" height="22" viewBox="0 0 64 22" fill="none" xmlns="http://www.w3.org/2000/svg">
<path d="M32 0H0V22H32V0Z" fill="#0061AF"/>
<path d="M22.3998 10.8687L19.3066 10.3143C19.9128 9.81759 20.4411 9.24436 21.0767 8.98491C21.5904 8.77314 22.0216 8.82525 22.0216 8.82525V8.79864C22.0216 8.79864 21.4549 8.4006 20.5089 8.61348C20.0562 8.69775 19.4127 8.95276 18.7184 9.09136L20.5642 6.49242L20.51 6.4392L17.9271 8.19437C18.0083 7.41935 17.9767 6.64211 18.2409 6.01566C18.4565 5.51117 18.7805 5.24618 18.7805 5.24618V5.21957C18.7805 5.21957 18.0783 5.32601 17.5387 6.1476C17.2971 6.53567 17.0206 7.18651 16.6209 7.77193L16.0542 4.60864H15.9729L15.4085 7.64664C14.9027 7.05124 14.3191 6.53234 14.0549 5.90811C13.8393 5.40362 13.8924 4.98008 13.8924 4.98008H13.8653C13.8653 4.98008 13.46 5.53667 13.6767 6.46581C13.7648 6.9193 14.0312 7.56459 14.1712 8.26089L11.4889 6.4392L11.4347 6.49242L13.2139 8.99933C12.4372 8.92393 11.6594 8.95054 11.0294 8.69442C10.5158 8.48265 10.246 8.16443 10.246 8.16443H10.2189C10.2189 8.16443 10.3273 8.85408 11.1638 9.38407C11.56 9.62245 12.2272 9.89521 12.8255 10.291L9.59686 10.8698V10.9496L12.6833 11.4829C12.0805 11.9786 11.5533 12.5485 10.9211 12.8057C10.4074 13.0175 9.97618 12.9654 9.97618 12.9654V12.992C9.97618 12.992 10.5429 13.39 11.4889 13.1771C11.9506 13.0907 12.6077 12.829 13.3166 12.6915L11.4618 15.3259L11.516 15.3791L14.0685 13.6317C13.9917 14.3946 14.0188 15.1585 13.758 15.7772C13.5424 16.2817 13.2184 16.5467 13.2184 16.5467V16.5733C13.2184 16.5733 13.9206 16.4668 14.4602 15.6452C14.7029 15.2561 14.9806 14.6008 15.3836 14.0131L15.9729 17.1842H16.0542L16.5972 14.1528C17.1018 14.7449 17.6821 15.2627 17.944 15.8836C18.1596 16.387 18.1066 16.8116 18.1066 16.8116H18.1337C18.1337 16.8116 18.5389 16.255 18.3222 15.3259C18.2364 14.8813 17.9767 14.2493 17.8356 13.5674L20.4829 15.3791L20.5371 15.3259L18.75 12.7891C19.5391 12.8689 20.3305 12.8379 20.9683 13.0973C21.4809 13.3091 21.7518 13.6273 21.7518 13.6273H21.7789C21.7789 13.6273 21.6705 12.9376 20.834 12.4077C20.4389 12.1704 19.7762 11.8987 19.1802 11.5062L22.4009 10.9496V10.8687H22.3998Z" fill="#FFCB05"/>
<path d="M0 0V22.0011H32L0 0Z" fill="#389954"/>
<path d="M64 0.000488281H32V22.0005H64V0.000488281Z" fill="#F6F6F6"/>
<path d="M48 6.64935L52.3301 14.1494H43.6699L48 6.64935Z" fill="#E32013"/>
</svg>
