<svg width="24" height="24" viewBox="0 0 24 24" fill="none" xmlns="http://www.w3.org/2000/svg"><path d="M11.2727 6.90909V4H12.7273V6.90909H11.2727ZM16.1091 8.90909L15.1091 7.90909L17.1455 5.81818L18.1636 6.85455L16.1091 8.90909ZM17.0909 12.7273V11.2727H20V12.7273H17.0909ZM11.2727 20V17.0909H12.7273V20H11.2727ZM7.89091 8.87273L5.81818 6.85455L6.85455 5.83636L8.90909 7.89091L7.89091 8.87273ZM17.1273 18.1818L15.1091 16.0909L16.0909 15.1091L18.1636 17.1091L17.1273 18.1818ZM4 12.7273V11.2727H6.90909V12.7273H4ZM6.85455 18.1818L5.83636 17.1455L7.87273 15.1091L8.4 15.6L8.92727 16.1091L6.85455 18.1818ZM8.90909 15.0909C8.06061 14.2424 7.63636 13.2121 7.63636 12C7.63636 10.7879 8.06061 9.75758 8.90909 8.90909C9.75758 8.06061 10.7879 7.63636 12 7.63636C13.2121 7.63636 14.2424 8.06061 15.0909 8.90909C15.9394 9.75758 16.3636 10.7879 16.3636 12C16.3636 13.2121 15.9394 14.2424 15.0909 15.0909C14.2424 15.9394 13.2121 16.3636 12 16.3636C10.7879 16.3636 9.75758 15.9394 8.90909 15.0909ZM14.0545 14.0545C14.6242 13.4848 14.9091 12.8 14.9091 12C14.9091 11.2 14.6242 10.5152 14.0545 9.94546C13.4848 9.37576 12.8 9.09091 12 9.09091C11.2 9.09091 10.5152 9.37576 9.94546 9.94546C9.37576 10.5152 9.09091 11.2 9.09091 12C9.09091 12.8 9.37576 13.4848 9.94546 14.0545C10.5152 14.6242 11.2 14.9091 12 14.9091C12.8 14.9091 13.4848 14.6242 14.0545 14.0545Z" fill="black"/></svg>